<svg xmlns="http://www.w3.org/2000/svg" viewBox="0 0 180 150" fill="none">
  <ellipse cx="90" cy="130" rx="68" ry="11" fill="#FFE7B6"/>
  <circle cx="72" cy="45" r="34" fill="#fff" stroke="#FF6B00" stroke-width="7"/>
  <path d="M72 24v21l18 12" stroke="#FF6B00" stroke-width="7" stroke-linecap="round" stroke-linejoin="round"/>
  <path d="M72 11v10M72 69v10M38 45H27M117 45h-10" stroke="#FF8A1F" stroke-width="5" stroke-linecap="round"/>
  <rect x="122" y="43" width="32" height="28" rx="7" fill="#172436"/>
  <path d="M129 43v-9c0-11 18-11 18 0v9" stroke="#172436" stroke-width="7" stroke-linecap="round"/>
  <circle cx="138" cy="56" r="3.5" fill="#fff"/><rect x="136" y="58" width="4" height="8" rx="2" fill="#fff"/>
  <path d="M31 93 20 84M36 106H20M144 93l11-9M140 106h16" stroke="#FF7A00" stroke-width="6" stroke-linecap="round"/>
  <path d="M54 94c7-18 28-24 51-21 20 3 33 16 36 32l-4 12H56l-7-11z" fill="#FFF1D8"/>
  <path d="M71 83c8-6 25-6 42-2l7 14H66z" fill="#172436"/>
  <rect x="53" y="99" width="24" height="6" rx="3" fill="#FF7A00"/>
  <rect x="108" y="100" width="24" height="5" rx="2.5" fill="#172436"/>
  <circle cx="71" cy="117" r="11" fill="#172436"/><circle cx="71" cy="117" r="5" fill="#FFF6E3"/>
  <circle cx="125" cy="117" r="11" fill="#172436"/><circle cx="125" cy="117" r="5" fill="#FFF6E3"/>
  <path d="M128 93c8 1 12 4 12 9-8 0-13-2-17-6z" fill="#fff"/>
</svg>
