<svg xmlns="http://www.w3.org/2000/svg" viewBox="0 0 180 180" role="img" aria-label="완료 현황">
  <defs>
    <linearGradient id="red" x1="50" y1="25" x2="145" y2="145" gradientUnits="userSpaceOnUse"><stop stop-color="#FF4565"/><stop offset="1" stop-color="#E91545"/></linearGradient>
    <linearGradient id="glass" x1="46" y1="105" x2="127" y2="134" gradientUnits="userSpaceOnUse"><stop stop-color="#253347"/><stop offset="1" stop-color="#111B2A"/></linearGradient>
  </defs>
  <ellipse cx="91" cy="152" rx="68" ry="12" fill="#F6B7C3" opacity=".42"/>
  <path d="M61 27h62l28 28v78c0 7-6 13-13 13H61c-7 0-13-6-13-13V40c0-7 6-13 13-13Z" fill="#fff" stroke="url(#red)" stroke-width="9" stroke-linejoin="round"/>
  <path d="M123 27v27h28" fill="#FF5B74" opacity=".9"/>
  <path d="M74 62h32M74 85h56M74 108h45" stroke="#F7BCC6" stroke-width="8" stroke-linecap="round"/>
  <path d="M147 74l4 10 10 4-10 4-4 10-4-10-10-4 10-4 4-10Z" fill="#FF9DAC" opacity=".8"/>
  <path d="M37 87l3 7 7 3-7 3-3 7-3-7-7-3 7-3 3-7Z" fill="#FF9DAC" opacity=".75"/>
  <g transform="translate(28 103)">
    <path d="M17 23c5-14 15-20 35-20h33c12 0 22 7 28 21l4 15c2 7-3 14-10 14H14C6 53 1 45 4 37l5-11c1-2 4-3 8-3Z" fill="#FFF4DE"/>
    <path d="M34 8c9-5 18-6 31-5 12 1 20 5 25 14H31c0-4 1-7 3-9Z" fill="url(#glass)"/>
    <path d="M33 17h60" stroke="#fff" stroke-width="5" stroke-linecap="round" opacity=".92"/>
    <path d="M14 27h20c5 0 8 3 8 8v20" fill="none" stroke="#FF6900" stroke-width="8" stroke-linecap="round"/>
    <path d="M72 35h22" stroke="#162132" stroke-width="5" stroke-linecap="round"/>
    <path d="M65 46h38" stroke="#162132" stroke-width="6" stroke-linecap="round"/>
    <ellipse cx="28" cy="53" rx="12" ry="18" fill="#122033"/><ellipse cx="28" cy="53" rx="6" ry="11" fill="#FFF8EA"/>
    <ellipse cx="59" cy="53" rx="12" ry="18" fill="#122033"/><ellipse cx="59" cy="53" rx="6" ry="11" fill="#FFF8EA"/>
    <path d="M12 37h15" stroke="#FF7A00" stroke-width="5" stroke-linecap="round"/>
    <path d="M104 32c6 1 8 4 9 8" stroke="#122033" stroke-width="4" stroke-linecap="round" opacity=".7"/>
  </g>
  <circle cx="132" cy="116" r="32" fill="url(#red)"/>
  <path d="m116 116 12 12 23-25" fill="none" stroke="#fff" stroke-width="10" stroke-linecap="round" stroke-linejoin="round"/>
</svg>
