<svg xmlns="http://www.w3.org/2000/svg" viewBox="0 0 180 150" fill="none">
  <ellipse cx="91" cy="130" rx="68" ry="11" fill="#FFDCE5"/>
  <path d="M48 19h62l25 25v74H48z" fill="#fff" stroke="#F03A62" stroke-width="7" stroke-linejoin="round"/>
  <path d="M110 19v25h25" fill="#FFD7E0" stroke="#F03A62" stroke-width="7" stroke-linejoin="round"/>
  <path d="M66 55h26M66 76h43M66 96h31" stroke="#F4B1BF" stroke-width="6" stroke-linecap="round"/>
  <path d="m149 58 5 11 11 5-11 5-5 11-5-11-11-5 11-5z" fill="#FF8FA7" opacity=".75"/>
  <path d="m35 70 3 8 8 3-8 3-3 8-3-8-8-3 8-3z" fill="#FFB5C4"/>
  <circle cx="122" cy="97" r="31" fill="#EA2451"/>
  <path d="m106 96 12 12 21-27" stroke="#fff" stroke-width="9" stroke-linecap="round" stroke-linejoin="round"/>
  <path d="M30 95c7-18 28-24 51-21 20 3 33 16 36 32l-4 12H32l-7-11z" fill="#FFF1D8"/>
  <path d="M47 84c8-6 25-6 42-2l7 14H42z" fill="#172436"/>
  <rect x="29" y="100" width="24" height="6" rx="3" fill="#FF7A00"/>
  <rect x="84" y="101" width="24" height="5" rx="2.5" fill="#172436"/>
  <circle cx="47" cy="118" r="11" fill="#172436"/><circle cx="47" cy="118" r="5" fill="#FFF6E3"/>
  <circle cx="101" cy="118" r="11" fill="#172436"/><circle cx="101" cy="118" r="5" fill="#FFF6E3"/>
  <path d="M104 94c8 1 12 4 12 9-8 0-13-2-17-6z" fill="#fff"/>
</svg>
