<svg xmlns="http://www.w3.org/2000/svg" viewBox="0 0 180 150" fill="none">
  <ellipse cx="86" cy="130" rx="68" ry="11" fill="#FFE7B6"/>
  <rect x="22" y="27" width="76" height="96" rx="13" fill="#fff" stroke="#F8B900" stroke-width="6"/>
  <rect x="45" y="16" width="36" height="24" rx="9" fill="#FBC400"/>
  <circle cx="63" cy="18" r="8" fill="#FFF6D8"/>
  <path d="m38 57 8 8 16-20" stroke="#FF7A00" stroke-width="6" stroke-linecap="round" stroke-linejoin="round"/>
  <path d="m38 80 8 8 16-20" stroke="#FF7A00" stroke-width="6" stroke-linecap="round" stroke-linejoin="round"/>
  <path d="m38 103 8 8 16-20" stroke="#FF7A00" stroke-width="6" stroke-linecap="round" stroke-linejoin="round"/>
  <path d="M72 56h27M72 80h24M72 103h18" stroke="#D8D1C4" stroke-width="5" stroke-linecap="round"/>
  <path d="m141 50 5 12 12 5-12 5-5 12-5-12-12-5 12-5z" fill="#FFD76D"/>
  <path d="m125 79 3 8 8 3-8 3-3 8-3-8-8-3 8-3z" fill="#FFE293"/>
  <path d="M74 94c7-18 28-24 51-21 20 3 33 16 36 32l-4 12H76l-7-11z" fill="#FFF1D8"/>
  <path d="M91 83c8-6 25-6 42-2l7 14H86z" fill="#172436"/>
  <rect x="73" y="99" width="24" height="6" rx="3" fill="#FF7A00"/>
  <rect x="128" y="100" width="24" height="5" rx="2.5" fill="#172436"/>
  <circle cx="91" cy="117" r="11" fill="#172436"/><circle cx="91" cy="117" r="5" fill="#FFF6E3"/>
  <circle cx="145" cy="117" r="11" fill="#172436"/><circle cx="145" cy="117" r="5" fill="#FFF6E3"/>
  <path d="M148 93c8 1 12 4 12 9-8 0-13-2-17-6z" fill="#fff"/>
</svg>
